<?xml version="1.0" encoding="utf-8"?>
<!-- Generator: Adobe Illustrator 19.0.1, SVG Export Plug-In . SVG Version: 6.00 Build 0)  -->
<svg version="1.1" id="Layer_1" xmlns="http://www.w3.org/2000/svg" xmlns:xlink="http://www.w3.org/1999/xlink" x="0px" y="0px"
	 viewBox="0 0 218.8 244.2" style="enable-background:new 0 0 218.8 244.2;" xml:space="preserve">
<style type="text/css">
	.st0{fill:#231F20;}
	.st1{clip-path:url(#SVGID_2_);fill:#EFBF1B;}
	.st2{clip-path:url(#SVGID_2_);fill:#40BEB0;}
	.st3{clip-path:url(#SVGID_2_);fill:#0AA5DE;}
	.st4{clip-path:url(#SVGID_2_);fill:#231F20;}
	.st5{fill:#D7A229;}
	.st6{fill:#009B8F;}
</style>
<g>
	<g>
		<g>
			<path class="st0" d="M14.7,241.3l1.2-0.1l0.1,2.4c-3.1,0.4-5.7,0.7-7.9,0.7c-2.9,0-5-0.8-6.2-2.5c-1.2-1.7-1.8-4.3-1.8-7.9
				c0-7.1,2.8-10.7,8.5-10.7c2.7,0,4.8,0.8,6.2,2.3c1.4,1.5,2,3.9,2,7.2l-0.2,2.3H3.1c0,2.3,0.4,3.9,1.2,5c0.8,1.1,2.2,1.6,4.3,1.6
				C10.6,241.5,12.7,241.4,14.7,241.3z M13.6,232.4c0-2.5-0.4-4.3-1.2-5.3c-0.8-1-2.1-1.5-3.9-1.5c-1.8,0-3.2,0.5-4.1,1.6
				c-0.9,1.1-1.4,2.8-1.4,5.2H13.6z"/>
			<path class="st0" d="M21.7,243.8v-29.2h3.1v29.2H21.7z"/>
			<path class="st0" d="M45.2,229.6V240c0.1,1,0.9,1.6,2.4,1.8l-0.1,2.4c-2.1,0-3.8-0.5-4.8-1.6c-2.4,1.1-4.9,1.6-7.3,1.6
				c-1.9,0-3.3-0.5-4.3-1.6c-1-1.1-1.5-2.6-1.5-4.6c0-2,0.5-3.4,1.5-4.4c1-0.9,2.6-1.5,4.7-1.7l6.4-0.6v-1.8c0-1.4-0.3-2.4-0.9-3
				c-0.6-0.6-1.4-0.9-2.4-0.9c-2.2,0-4.4,0.1-6.8,0.4l-1.3,0.1l-0.1-2.3c3-0.6,5.6-0.9,7.9-0.9c2.3,0,4,0.5,5,1.6
				C44.7,225.7,45.2,227.3,45.2,229.6z M32.7,237.9c0,2.5,1,3.7,3.1,3.7c1.8,0,3.7-0.3,5.5-0.9l0.9-0.3v-6.7l-6,0.6
				c-1.2,0.1-2.1,0.5-2.6,1.1C33,235.9,32.7,236.7,32.7,237.9z"/>
			<path class="st0" d="M57.7,225.7c-3,0-4.4,1-4.4,3.1c0,1,0.3,1.6,1,2c0.7,0.4,2.2,0.8,4.6,1.2c2.4,0.4,4.1,1,5.1,1.8
				c1,0.8,1.5,2.2,1.5,4.3c0,2.1-0.7,3.6-2,4.6c-1.3,1-3.3,1.5-5.9,1.5c-1.7,0-3.7-0.2-5.9-0.6l-1.2-0.2l0.2-2.6
				c3.1,0.5,5.4,0.7,7,0.7c1.6,0,2.8-0.3,3.6-0.8c0.8-0.5,1.2-1.3,1.2-2.5c0-1.2-0.4-2-1.1-2.4c-0.7-0.4-2.3-0.8-4.6-1.2
				c-2.4-0.4-4.1-0.9-5.1-1.7c-1-0.7-1.5-2.1-1.5-4.1c0-2,0.7-3.4,2.1-4.4c1.4-1,3.1-1.4,5.2-1.4c1.7,0,3.7,0.2,6.2,0.6l1.1,0.2
				l-0.1,2.6C61.8,226,59.4,225.7,57.7,225.7z"/>
			<path class="st0" d="M80.8,226.1h-6.5v9.7c0,2.3,0.2,3.9,0.5,4.6c0.3,0.7,1.1,1.1,2.4,1.1l3.6-0.2l0.2,2.5
				c-1.8,0.3-3.2,0.4-4.2,0.4c-2.1,0-3.6-0.5-4.4-1.5c-0.8-1-1.2-3-1.2-5.9v-10.7h-2.9v-2.6h2.9v-6.2h3v6.2h6.5V226.1z"/>
			<path class="st0" d="M84.5,218.8v-3.5h3.1v3.5H84.5z M84.5,243.8v-20.4h3.1v20.4H84.5z"/>
			<path class="st0" d="M101,223c0.9,0,2.4,0.2,4.6,0.5l1,0.1l-0.1,2.5c-2.2-0.2-3.8-0.4-4.8-0.4c-2.3,0-3.9,0.5-4.7,1.6
				c-0.8,1.1-1.2,3.1-1.2,6.1c0,3,0.4,5,1.2,6.2c0.8,1.2,2.4,1.8,4.8,1.8l4.8-0.4l0.1,2.5c-2.5,0.4-4.4,0.6-5.7,0.6
				c-3.2,0-5.4-0.8-6.6-2.4c-1.2-1.6-1.8-4.4-1.8-8.2s0.7-6.6,2-8.1C95.8,223.8,98,223,101,223z"/>
			<path class="st0" d="M117.6,225.7c-3,0-4.4,1-4.4,3.1c0,1,0.3,1.6,1,2c0.7,0.4,2.2,0.8,4.6,1.2c2.4,0.4,4.1,1,5.1,1.8
				c1,0.8,1.5,2.2,1.5,4.3c0,2.1-0.7,3.6-2,4.6c-1.3,1-3.3,1.5-5.9,1.5c-1.7,0-3.7-0.2-5.9-0.6l-1.2-0.2l0.2-2.6
				c3.1,0.5,5.4,0.7,7,0.7c1.6,0,2.8-0.3,3.6-0.8c0.8-0.5,1.2-1.3,1.2-2.5c0-1.2-0.4-2-1.1-2.4c-0.7-0.4-2.3-0.8-4.6-1.2
				c-2.4-0.4-4.1-0.9-5.1-1.7c-1-0.7-1.5-2.1-1.5-4.1c0-2,0.7-3.4,2.1-4.4c1.4-1,3.1-1.4,5.2-1.4c1.7,0,3.7,0.2,6.2,0.6l1.1,0.2
				l-0.1,2.6C121.7,226,119.3,225.7,117.6,225.7z"/>
			<path class="st0" d="M144,241.3l1.2-0.1l0.1,2.4c-3.1,0.4-5.7,0.7-7.9,0.7c-2.9,0-5-0.8-6.2-2.5c-1.2-1.7-1.8-4.3-1.8-7.9
				c0-7.1,2.8-10.7,8.5-10.7c2.7,0,4.8,0.8,6.2,2.3c1.4,1.5,2,3.9,2,7.2l-0.2,2.3h-13.4c0,2.3,0.4,3.9,1.2,5
				c0.8,1.1,2.2,1.6,4.3,1.6C139.8,241.5,141.9,241.4,144,241.3z M142.9,232.4c0-2.5-0.4-4.3-1.2-5.3c-0.8-1-2.1-1.5-3.9-1.5
				c-1.8,0-3.2,0.5-4.1,1.6c-0.9,1.1-1.4,2.8-1.4,5.2H142.9z"/>
			<path class="st0" d="M165.1,229.6V240c0.1,1,0.9,1.6,2.4,1.8l-0.1,2.4c-2.1,0-3.8-0.5-4.8-1.6c-2.4,1.1-4.9,1.6-7.3,1.6
				c-1.9,0-3.3-0.5-4.3-1.6c-1-1.1-1.5-2.6-1.5-4.6c0-2,0.5-3.4,1.5-4.4c1-0.9,2.6-1.5,4.7-1.7l6.4-0.6v-1.8c0-1.4-0.3-2.4-0.9-3
				c-0.6-0.6-1.4-0.9-2.4-0.9c-2.2,0-4.4,0.1-6.8,0.4l-1.3,0.1l-0.1-2.3c3-0.6,5.6-0.9,7.9-0.9c2.3,0,4,0.5,5,1.6
				C164.5,225.7,165.1,227.3,165.1,229.6z M152.5,237.9c0,2.5,1,3.7,3.1,3.7c1.8,0,3.7-0.3,5.5-0.9l0.9-0.3v-6.7l-6,0.6
				c-1.2,0.1-2.1,0.5-2.6,1.1C152.8,235.9,152.5,236.7,152.5,237.9z"/>
			<path class="st0" d="M171.1,243.8v-20.4h3v2.8c2.4-1.6,4.8-2.7,7.5-3.2v3.1c-1.1,0.2-2.3,0.6-3.6,1c-1.2,0.5-2.2,0.9-2.8,1.2
				l-1,0.5v14.9H171.1z"/>
			<path class="st0" d="M192.4,223c0.9,0,2.4,0.2,4.6,0.5l1,0.1l-0.1,2.5c-2.2-0.2-3.8-0.4-4.8-0.4c-2.3,0-3.9,0.5-4.7,1.6
				c-0.8,1.1-1.2,3.1-1.2,6.1c0,3,0.4,5,1.2,6.2c0.8,1.2,2.4,1.8,4.8,1.8l4.8-0.4l0.1,2.5c-2.5,0.4-4.4,0.6-5.7,0.6
				c-3.2,0-5.4-0.8-6.6-2.4c-1.2-1.6-1.8-4.4-1.8-8.2s0.7-6.6,2-8.1C187.2,223.8,189.4,223,192.4,223z"/>
			<path class="st0" d="M205.6,243.8h-3.1v-29.2h3.1v10c2.2-1,4.3-1.5,6.3-1.5c2.7,0,4.5,0.7,5.5,2.2c0.9,1.5,1.4,4.1,1.4,7.8v10.8
				h-3.1v-10.7c0-2.8-0.3-4.8-0.8-5.8c-0.6-1-1.7-1.6-3.5-1.6c-1.7,0-3.4,0.3-5,0.9l-0.8,0.3V243.8z"/>
		</g>
	</g>
	<g>
		<g>
			<g>
				<defs>
					<circle id="SVGID_1_" cx="109.4" cy="92.5" r="92.5"/>
				</defs>
				<clipPath id="SVGID_2_">
					<use xlink:href="#SVGID_1_"  style="overflow:visible;"/>
				</clipPath>
				<path class="st1" d="M149,52H22.6c-3.2,0-5.8-2.6-5.8-5.8V5.8c0-3.2,2.6-5.8,5.8-5.8h164.7c3.2,0,5.8,2.6,5.8,5.8v2.1
					C193.1,32.2,173.3,52,149,52z"/>
				<path class="st2" d="M193.5,185H17.4c0,0-0.1,0-0.1-0.1v-51.9c0,0,0-0.1,0.1-0.1h132.1c24.3,0,44,19.7,44,44L193.5,185
					C193.5,185,193.5,185,193.5,185z"/>
				<path class="st3" d="M138.5,118.5H7.6v-52h130.9c14.4,0,26,11.7,26,26v0C164.5,106.9,152.8,118.5,138.5,118.5z"/>
				<path class="st4" d="M97.8,66.5H12.3v52H98c1.9-7.8,3-16.5,3-26C101,82.9,99.8,74.3,97.8,66.5z"/>
			</g>
			<path class="st5" d="M62.9,12.5c-15.8,9.2-28.6,22.9-36.7,39.4h68.3C87.4,36.3,76.5,22.7,62.9,12.5z"/>
			<path class="st6" d="M65.6,173.9c13.3-10.8,23.9-24.8,30.5-40.9H26.2C34.7,150.4,48.6,164.8,65.6,173.9z"/>
		</g>
	</g>
</g>
</svg>
